# xmcd
#
# Track frame offsets:
#	150
#	20724
#	36503
#	50928
#	64352
#	80646
#	95425
#	109483
#	124523
#	136293
#	149924
#	165295
#	178210
#	191846
#	206067
#	218190
#	232923
#	247573
#	259054
#	274473
#
# Disc length: 3845 seconds
#
# Revision: 1
# Processed by: cddbd v1.5PL3 Copyright (c) Steve Scherf et al.
# Submitted via: audiograbber 1.80
#
DISCID=3e0f0314
DTITLE=Joan Sebastian - Sembrador de Amor
DYEAR=1900
DGENRE=
TTITLE0=Secreto de Amor
TTITLE1=La Deuda
TTITLE2=No se amar
TTITLE3=Amorcito Mío
TTITLE4=Como guitarra en serenata
TTITLE5=Si hubiera sabido ayer
TTITLE6=El perdedor
TTITLE7=Un idiota
TTITLE8=Esa
TTITLE9=El camino del Amor
TTITLE10=Julian
TTITLE11=Recuerdame bonito
TTITLE12=Hasta que amanezca
TTITLE13=Hay un tren a las cinco
TTITLE14=Llorar
TTITLE15=Los amantes más locos
TTITLE16=Contigo y sin tí
TTITLE17=Envidia
TTITLE18=Mascarada
TTITLE19=Todavia Creo
EXTD=
EXTT0=
EXTT1=
EXTT2=
EXTT3=
EXTT4=
EXTT5=
EXTT6=
EXTT7=
EXTT8=
EXTT9=
EXTT10=
EXTT11=
EXTT12=
EXTT13=
EXTT14=
EXTT15=
EXTT16=
EXTT17=
EXTT18=
EXTT19=
PLAYORDER=
